<svg xmlns="http://www.w3.org/2000/svg" viewBox="0 0 321.52 256.88"><defs><style>.cls-1{fill:#3c2415;}</style></defs><g id="OBJECTS"><path class="cls-1" d="M293.85,188a1.31,1.31,0,0,0-.31,2.6,1.31,1.31,0,1,0,.31-2.6Z" transform="translate(-89.24 -119.56)"/><path class="cls-1" d="M292.76,194.47a1.3,1.3,0,0,0-.71,2.51,1.3,1.3,0,1,0,.71-2.51Z" transform="translate(-89.24 -119.56)"/><path class="cls-1" d="M290.7,200.67a1.3,1.3,0,0,0-1.09,2.37,1.3,1.3,0,1,0,1.09-2.37Z" transform="translate(-89.24 -119.56)"/><path class="cls-1" d="M287.71,206.47a1.31,1.31,0,0,0-1.45,2.18,1.29,1.29,0,0,0,1.84-.35A1.32,1.32,0,0,0,287.71,206.47Z" transform="translate(-89.24 -119.56)"/><path class="cls-1" d="M282,211.86a1.31,1.31,0,0,0,1.94,1.77,1.31,1.31,0,1,0-1.94-1.77Z" transform="translate(-89.24 -119.56)"/><path class="cls-1" d="M277.43,216.22a1.31,1.31,0,1,0,1.65,2,1.31,1.31,0,0,0-1.65-2Z" transform="translate(-89.24 -119.56)"/><path class="cls-1" d="M272.22,219.82a1.34,1.34,0,0,0-.47,1.79,1.31,1.31,0,1,0,2.25-1.33A1.34,1.34,0,0,0,272.22,219.82Z" transform="translate(-89.24 -119.56)"/><path class="cls-1" d="M266.52,222.59a1.35,1.35,0,0,0-.74,1.69,1.31,1.31,0,1,0,2.44-1A1.35,1.35,0,0,0,266.52,222.59Z" transform="translate(-89.24 -119.56)"/><path class="cls-1" d="M260.47,224.45a1.35,1.35,0,0,0-1,1.55,1.31,1.31,0,1,0,2.56-.56A1.35,1.35,0,0,0,260.47,224.45Z" transform="translate(-89.24 -119.56)"/><path class="cls-1" d="M254.21,225.36a1.34,1.34,0,0,0-1.22,1.39,1.31,1.31,0,1,0,2.61-.17A1.34,1.34,0,0,0,254.21,225.36Z" transform="translate(-89.24 -119.56)"/><path class="cls-1" d="M247.87,225.32a1.33,1.33,0,0,0-1.41,1.18,1.27,1.27,0,0,0,1.19,1.43,1.29,1.29,0,0,0,1.42-1.21A1.34,1.34,0,0,0,247.87,225.32Z" transform="translate(-89.24 -119.56)"/><path class="cls-1" d="M241.62,224.31a1.35,1.35,0,0,0-1.58.95,1.29,1.29,0,0,0,1,1.6,1.3,1.3,0,0,0,1.59-1A1.34,1.34,0,0,0,241.62,224.31Z" transform="translate(-89.24 -119.56)"/><path class="cls-1" d="M235.59,222.36a1.31,1.31,0,0,0-1,2.43,1.31,1.31,0,0,0,1-2.43Z" transform="translate(-89.24 -119.56)"/><path class="cls-1" d="M229.94,219.51a1.31,1.31,0,1,0,.45,1.77A1.3,1.3,0,0,0,229.94,219.51Z" transform="translate(-89.24 -119.56)"/><path class="cls-1" d="M223,216a1.31,1.31,0,1,0,2,1.68,1.31,1.31,0,0,0-2-1.68Z" transform="translate(-89.24 -119.56)"/><path class="cls-1" d="M218.42,211.26a1.31,1.31,0,1,0,1.74,2,1.31,1.31,0,0,0-1.74-2Z" transform="translate(-89.24 -119.56)"/><path class="cls-1" d="M215.65,205.76a1.4,1.4,0,0,0-1,.15,1.28,1.28,0,0,0-.41,1.82,1.28,1.28,0,0,0,1.82.39,1.33,1.33,0,0,0,.39-1.8A1.29,1.29,0,0,0,215.65,205.76Z" transform="translate(-89.24 -119.56)"/><path class="cls-1" d="M211.76,200.06a1.31,1.31,0,1,0,1.05,2.4,1.31,1.31,0,0,0-1.05-2.4Z" transform="translate(-89.24 -119.56)"/><path class="cls-1" d="M211.38,194.76a1.33,1.33,0,0,0-1.58-.93,1.31,1.31,0,1,0,.66,2.53A1.32,1.32,0,0,0,211.38,194.76Z" transform="translate(-89.24 -119.56)"/><path class="cls-1" d="M209.08,190a1.31,1.31,0,1,0-1.47-1.16A1.3,1.3,0,0,0,209.08,190Z" transform="translate(-89.24 -119.56)"/><path class="cls-1" d="M208.69,183.45a1.31,1.31,0,1,0-1.28-1.37A1.3,1.3,0,0,0,208.69,183.45Z" transform="translate(-89.24 -119.56)"/><path class="cls-1" d="M209.28,176.94a1.31,1.31,0,1,0-1.06-1.54A1.3,1.3,0,0,0,209.28,176.94Z" transform="translate(-89.24 -119.56)"/><path class="cls-1" d="M210.86,170.6a1.31,1.31,0,1,0-.81-1.69A1.31,1.31,0,0,0,210.86,170.6Z" transform="translate(-89.24 -119.56)"/><path class="cls-1" d="M213.4,164.58a1.31,1.31,0,0,0,1.26-2.29,1.31,1.31,0,1,0-1.26,2.29Z" transform="translate(-89.24 -119.56)"/><path class="cls-1" d="M216.83,159a1.31,1.31,0,0,0,1.59-2.07,1.31,1.31,0,1,0-1.59,2.07Z" transform="translate(-89.24 -119.56)"/><path class="cls-1" d="M222.9,154.09a1.24,1.24,0,0,0,.39-.91,1.3,1.3,0,0,0-.33-.94,1.27,1.27,0,0,0-.91-.43,1.3,1.3,0,0,0-1,.37,1.28,1.28,0,0,0,0,1.86A1.34,1.34,0,0,0,222.9,154.09Z" transform="translate(-89.24 -119.56)"/><path class="cls-1" d="M227.82,150.09a1.35,1.35,0,0,0,.34-1.81,1.31,1.31,0,1,0-2.16,1.49A1.34,1.34,0,0,0,227.82,150.09Z" transform="translate(-89.24 -119.56)"/><path class="cls-1" d="M233.28,146.88a1.31,1.31,0,1,0-1.74-.58A1.3,1.3,0,0,0,233.28,146.88Z" transform="translate(-89.24 -119.56)"/><path class="cls-1" d="M239.17,144.56a1.31,1.31,0,0,0-.77-2.51,1.31,1.31,0,0,0,.77,2.51Z" transform="translate(-89.24 -119.56)"/><path class="cls-1" d="M245.35,143.17a1.31,1.31,0,1,0-1.48-1.08A1.31,1.31,0,0,0,245.35,143.17Z" transform="translate(-89.24 -119.56)"/><path class="cls-1" d="M251.67,142.74a1.31,1.31,0,1,0,0-2.62,1.3,1.3,0,0,0-1.32,1.33A1.31,1.31,0,0,0,251.67,142.74Z" transform="translate(-89.24 -119.56)"/><path class="cls-1" d="M258,143.27a1.32,1.32,0,0,0,1.5-1.07,1.31,1.31,0,1,0-2.58-.41A1.32,1.32,0,0,0,258,143.27Z" transform="translate(-89.24 -119.56)"/><path class="cls-1" d="M264.14,144.76a1.32,1.32,0,0,0,1.64-.83,1.31,1.31,0,1,0-2.49-.8A1.34,1.34,0,0,0,264.14,144.76Z" transform="translate(-89.24 -119.56)"/><path class="cls-1" d="M270,147.17a1.34,1.34,0,0,0,1.76-.57,1.31,1.31,0,1,0-2.34-1.17A1.34,1.34,0,0,0,270,147.17Z" transform="translate(-89.24 -119.56)"/><path class="cls-1" d="M275.41,150.46a1.34,1.34,0,0,0,1.81-.3,1.28,1.28,0,0,0-.28-1.84,1.29,1.29,0,0,0-1.84.31A1.36,1.36,0,0,0,275.41,150.46Z" transform="translate(-89.24 -119.56)"/><path class="cls-1" d="M282.1,154.51a1.29,1.29,0,0,0,0-1.87,1.31,1.31,0,0,0-1.87,0,1.31,1.31,0,0,0,1.87,1.83Z" transform="translate(-89.24 -119.56)"/><path class="cls-1" d="M286.26,159.55a1.31,1.31,0,1,0-1.81-.27A1.31,1.31,0,0,0,286.26,159.55Z" transform="translate(-89.24 -119.56)"/><path class="cls-1" d="M289.61,165.16a1.31,1.31,0,1,0-1.24-2.3,1.31,1.31,0,0,0,1.24,2.3Z" transform="translate(-89.24 -119.56)"/><path class="cls-1" d="M292.05,171.22a1.31,1.31,0,1,0-.87-2.46,1.33,1.33,0,0,0-.78,1.66A1.31,1.31,0,0,0,292.05,171.22Z" transform="translate(-89.24 -119.56)"/><path class="cls-1" d="M292,176.54a1.34,1.34,0,0,0,1.52,1.05,1.31,1.31,0,1,0-.48-2.57A1.34,1.34,0,0,0,292,176.54Z" transform="translate(-89.24 -119.56)"/><path class="cls-1" d="M293.05,181.92a1.28,1.28,0,0,0-.36.92A1.33,1.33,0,0,0,294,184.1a1.28,1.28,0,0,0,1.28-1.34,1.34,1.34,0,0,0-.41-.94,1.33,1.33,0,0,0-1.86.1Z" transform="translate(-89.24 -119.56)"/><path class="cls-1" d="M251.35,225.15a41,41,0,1,0-41-41.05A41.09,41.09,0,0,0,251.35,225.15Zm0-81.1a40.06,40.06,0,1,1-40,40A40.1,40.1,0,0,1,251.35,144.05Z" transform="translate(-89.24 -119.56)"/><path class="cls-1" d="M100.57,226.13h32a11.88,11.88,0,0,0,3.42,0H149.2a6.34,6.34,0,0,0,2.46.85,5.07,5.07,0,0,0,3.32-.85h77a46.23,46.23,0,0,0,38.81,0h76.58a5.07,5.07,0,0,0,3.32.85,6.34,6.34,0,0,0,2.46-.85H366.3a11.88,11.88,0,0,0,3.42,0H400.5a1,1,0,0,0,0-2h-4.26a7.53,7.53,0,0,0,3.05-4.23c1.35-4.43-1.13-9.09-5.22-11.1s-8.79-1.55-11.41,2.37c-3.8,5.7,2.78,11,8.34,8.48a.66.66,0,0,0-.15-1.2l-.38,0a.38.38,0,0,0-.11-.25,4.31,4.31,0,0,0-1.44-.75,7.84,7.84,0,0,1-2.16-2.56,4.79,4.79,0,0,1-.63-3.55,5.67,5.67,0,0,1,1.17-1.84,8.35,8.35,0,0,1,8.11,2.37c2.48,2.55,3.42,6.45,1.1,9.48a8,8,0,0,1-5.18,2.82h-4.15c-.74,0-1.49,0-2.24,0h-10.4A12.35,12.35,0,0,0,375,204.5c-3.84-3-9.16-3.2-13.72-2.05a25.27,25.27,0,0,0-5.82,2.19c3.3-5.84,3.5-13.52,5.71-19.63,1.3-3.56,3.76-8,8.21-7.78a5.57,5.57,0,0,1,4.51,2.75,1.68,1.68,0,0,1-.17,1.46,5.37,5.37,0,0,1-1.8,1.81,4.26,4.26,0,0,1-5.16-.42.65.65,0,0,0-1.1.45,3.79,3.79,0,0,0,.77,2.6,1.15,1.15,0,0,0,.15.35c1.32,1.92,4.13,3.73,6.42,2.12a6.47,6.47,0,0,0,2.75-6.31c-.88-4.9-5.89-7.58-10.35-5-4.28,2.49-5.91,7.66-7.07,12.18-.66,2.58-1.1,5.22-1.82,7.79a33.46,33.46,0,0,1-2,5.11,14.15,14.15,0,0,0-.93-6.41c-1.76-4.31-7.66-4.95-11.15-2.37-3.1,2.28-4.12,7.57-.79,10.28,3.5,2.86,7.7.16,6.26-4.24a.92.92,0,0,0-.46-.55.78.78,0,0,0-.79-.25c-1.26.33-1.56,1.59-2.15,2.58-1.18,2-3,.18-3.82-1.24a4.16,4.16,0,0,1-.13-.59,5.25,5.25,0,0,1,4.64-6.13c5.93-1,7.8,4.42,7.3,9.33-.85,8.25-8.21,13.15-15.14,16.33-9.51,4.34-19.39,4.65-29.66,4.82-4.5.08-9,.33-13.48.46,2.87-.66,5.67-1.5,8.48-2.4A96.63,96.63,0,0,1,317.46,218a60,60,0,0,0,8.73-1.78c2.17-.67,5-1.54,6.38-3.54a3.55,3.55,0,0,0-1.14-5.08c-2.33-1.19-5.21-.46-7.55.36a47.88,47.88,0,0,0-6.18,2.72c4-3,8.06-5.92,12.07-8.91a64.88,64.88,0,0,0,12.59-11.9c1.72-2.2,5.51-7.86,2.85-10.7-2.46-2.65-6.64.55-8.52,2.43-3.22,3.22-5.25,7.26-7.31,11.27-2.53,4.91-5.38,9.22-9.7,12.74-2,1.6-4,3.1-5.91,4.71a37.13,37.13,0,0,0,3.2-5.14,40.06,40.06,0,0,0,5-11,13.08,13.08,0,0,0,1.07-6.41c.1-2.36-.33-4.38-2.25-3.89-1.6.4-2.34,2.14-2.86,3.55a56.15,56.15,0,0,0-2.53,10.38c-.63,3.73-1.35,7.55-3.26,10.88-1.83,3.16-4.34,5.46-6.86,8l0,0c-.67.45-1.35.88-2.05,1.28a49.54,49.54,0,0,1-12.76,5.14,47.58,47.58,0,0,1-4.73.92h-2.24a38,38,0,0,0,5.72-2.62,39.29,39.29,0,0,0,13.21-11.91,33.43,33.43,0,0,0,5.4-14.45c0-.11,0-.23,0-.35a39.32,39.32,0,0,0,.45-5.4,58.75,58.75,0,0,0-.07-8.28c0-1.63-.08-3.29,0-4.84a67.34,67.34,0,0,1,1-7.61,5.45,5.45,0,0,1,.35-.62c1.7-2.82,6.36-5.55,9.27-2.52,1.85,1.93,2.57,5.54.92,7.86a5.28,5.28,0,0,1-.71.81c-1.1.56-2.28,1.34-3.29.14a1.81,1.81,0,0,1-.47-1.35c.07-.51.57-.78.83-1.18a.61.61,0,0,0,.11-.4.85.85,0,0,0-.17-.58c-.95-1.28-3-.13-3.63,1-.94,1.81,0,3.64,1.62,4.67s4,.14,5.36-.9a6.66,6.66,0,0,0,2.52-5.52c-.2-4.93-4.45-8.65-9.38-6.42-3.5,1.58-5.32,5.05-5.9,8.77-.25-3.55-.65-7.07-1.22-10.65-.69-4.24-1.53-9.12-4.84-12.21-2.58-2.4-6.57-4.13-9.52-1.18a9.47,9.47,0,0,0-2.59,8,46.25,46.25,0,0,0-74.73.75,9.41,9.41,0,0,0-2.44-8.75c-2.94-3-6.94-1.22-9.52,1.18-3.31,3.09-4.15,8-4.83,12.21-.58,3.58-1,7.1-1.22,10.65-.59-3.72-2.41-7.19-5.91-8.77-4.93-2.23-9.18,1.49-9.38,6.42a6.64,6.64,0,0,0,2.53,5.52c1.34,1,3.75,1.91,5.35.9s2.56-2.86,1.62-4.67c-.59-1.14-2.68-2.29-3.62-1a.81.81,0,0,0-.18.58.61.61,0,0,0,.11.4c.26.4.77.67.83,1.18a1.77,1.77,0,0,1-.47,1.35c-1,1.2-2.18.42-3.29-.14a5.88,5.88,0,0,1-.71-.81c-1.65-2.32-.93-5.93.92-7.86,2.91-3,7.57-.3,9.28,2.52.12.2.24.41.35.62a69.68,69.68,0,0,1,1,7.61c.09,1.55,0,3.21,0,4.84a58.75,58.75,0,0,0-.07,8.28,39.32,39.32,0,0,0,.45,5.4l.06.35a33.29,33.29,0,0,0,5.39,14.45,39.29,39.29,0,0,0,13.21,11.91,38.5,38.5,0,0,0,5.72,2.62h-2.24a48.14,48.14,0,0,1-4.73-.92,49.54,49.54,0,0,1-12.76-5.14c-.7-.4-1.38-.83-2-1.28,0,0,0,0,0,0-2.53-2.57-5-4.87-6.86-8-1.92-3.33-2.64-7.15-3.27-10.88a56.15,56.15,0,0,0-2.53-10.38c-.52-1.41-1.26-3.15-2.85-3.55-1.92-.49-2.36,1.53-2.26,3.89a13,13,0,0,0,1.08,6.41,39.48,39.48,0,0,0,5,11,37.07,37.07,0,0,0,3.19,5.14c-1.92-1.61-4-3.11-5.9-4.71-4.33-3.52-7.18-7.83-9.7-12.74-2.06-4-4.1-8.05-7.32-11.27-1.88-1.88-6.06-5.08-8.52-2.43-2.66,2.84,1.13,8.5,2.85,10.7a64.65,64.65,0,0,0,12.6,11.9c4,3,8.05,5.93,12.06,8.91a47.88,47.88,0,0,0-6.18-2.72c-2.33-.82-5.22-1.55-7.55-.36a3.55,3.55,0,0,0-1.14,5.08c1.35,2,4.21,2.87,6.38,3.54a60,60,0,0,0,8.73,1.78,96.76,96.76,0,0,1,14.79,3.73c2.81.9,5.6,1.74,8.47,2.4-4.49-.13-9-.38-13.47-.46-10.27-.17-20.16-.48-29.66-4.82-6.94-3.18-14.29-8.08-15.15-16.33-.5-4.91,1.37-10.32,7.3-9.33a5.25,5.25,0,0,1,4.64,6.13c0,.2-.07.39-.12.59-.81,1.42-2.64,3.21-3.82,1.24-.6-1-.9-2.25-2.15-2.58a.79.79,0,0,0-.8.25.92.92,0,0,0-.46.55c-1.44,4.4,2.76,7.1,6.27,4.24,3.32-2.71,2.3-8-.79-10.28-3.49-2.58-9.4-1.94-11.16,2.37a14,14,0,0,0-.92,6.41,31.52,31.52,0,0,1-2-5.11c-.73-2.57-1.16-5.21-1.83-7.79-1.16-4.52-2.79-9.69-7.07-12.18-4.46-2.6-9.47.08-10.35,5a6.47,6.47,0,0,0,2.75,6.31c2.29,1.61,5.1-.2,6.42-2.12a1,1,0,0,0,.15-.35,3.79,3.79,0,0,0,.77-2.6.65.65,0,0,0-1.1-.45,4.26,4.26,0,0,1-5.16.42,5.37,5.37,0,0,1-1.8-1.81,1.68,1.68,0,0,1-.17-1.46,5.57,5.57,0,0,1,4.51-2.75c4.45-.21,6.91,4.22,8.21,7.78,2.22,6.11,2.41,13.79,5.71,19.63a25.37,25.37,0,0,0-5.81-2.19c-4.57-1.15-9.89-.93-13.73,2.05a12.35,12.35,0,0,0,.45,19.66h-10.4c-.75,0-1.5,0-2.23,0H111a8,8,0,0,1-5.19-2.82c-2.32-3-1.38-6.93,1.1-9.48a8.35,8.35,0,0,1,8.11-2.37,5.86,5.86,0,0,1,1.18,1.84,4.84,4.84,0,0,1-.64,3.55,7.84,7.84,0,0,1-2.16,2.56,4.4,4.4,0,0,0-1.44.75.38.38,0,0,0-.11.25l-.38,0a.66.66,0,0,0-.15,1.2c5.56,2.53,12.14-2.78,8.34-8.48-2.62-3.92-7.44-4.31-11.41-2.37s-6.57,6.67-5.21,11.1a7.56,7.56,0,0,0,3,4.23h-5.51a1,1,0,1,0,0,2Zm61.25-7a49.66,49.66,0,0,0,14.78,5H156.81l.12-.26q.13-.26.27-.54c.38-.87,1.07-2.9.46-3.76a.23.23,0,0,0-.3-.09v0a.42.42,0,0,0-.61-.24c-1.89,1.14-3.16,2.62-5.5,2.89a3.46,3.46,0,0,1-2.48-.47,2,2,0,0,1-.39-1.95,6.46,6.46,0,0,1,3.23-2.34c2.5-.81,5.4-.24,8.23.7Zm36.53.11-.26-.13.18.08ZM171.68,198.4l-.14-.17.8.74ZM195.6,218l-.55-.25,0,0Zm5.12,2.65.27.14-.29-.09S200.71,220.64,200.72,220.63Zm106-2.65.58-.3,0,0Zm23.93-19.58L330,199l.8-.74Zm-26.6,20.82.18-.08-.26.13Zm-2.44,1.41a.11.11,0,0,0,0,.05l-.29.09Zm38.9-1.47,2-1.08c2.84-.94,5.73-1.51,8.23-.7a6.42,6.42,0,0,1,3.23,2.34,2,2,0,0,1-.39,1.95,3.45,3.45,0,0,1-2.48.47c-2.34-.27-3.61-1.75-5.5-2.89a.41.41,0,0,0-.6.24v0a.23.23,0,0,0-.3.09c-.61.86.08,2.89.46,3.76q.13.28.27.54c.05.09.08.18.13.26h-19.8A49.72,49.72,0,0,0,340.51,219.16Zm10.83-8.49.08-.07c5-6.84,19.22-10.9,24.71-2.37a10.91,10.91,0,0,1-5.21,15.93h-6.34c-3.55-1.18-6.73-4.48-6.41-8.46a8,8,0,0,1,5.64-6.72c2.53-.87,6.06-1.17,8.07,1a5.2,5.2,0,0,1,1.38,4.5,3.27,3.27,0,0,1-2,1.29c-1.25.21-1.34-.94-1.8-1.76a1,1,0,0,0-.28-.41l-.05-.05a.37.37,0,0,0-.28-.09.86.86,0,0,0-.47,0c-1.5.53-4.19,2.24-3,4.24a4.42,4.42,0,0,0,5.78,1.36,6.42,6.42,0,0,0,1.15-10.54c-4.58-3.9-13.41-.48-15.24,4.9-1.54,4.51.61,8.42,4.07,10.69h-5.8a4.29,4.29,0,0,0,.68-3.9c-1-3.1-4.42-4.79-7.6-4.56a16,16,0,0,0-2.92.51A23.87,23.87,0,0,0,351.34,210.67Zm-21.17-1.88a2.08,2.08,0,0,1,.3.13l0,.05c-1.59.61-3.09,1.49-4.72,2-2.11.72-4.22,1.49-6.36,2.12-2.71.81-5.53,1.57-8.2,2.64,3.7-1.89,7.33-4,11.15-5.52C324.48,209.37,327.79,207.88,330.17,208.79Zm3.63-21.15a24.28,24.28,0,0,1,3.79-5.11,14,14,0,0,1,4.08-2.93c-1.21,1.63-2.18,3.46-3.44,5.06s-2.75,3.39-4.13,5.07a76.54,76.54,0,0,0-4.92,6.65C330.72,193.47,332.1,190.47,333.8,187.64Zm-15.35,1.27a14,14,0,0,1,1.21-2.83c0,.24-.05.47-.08.7-.27,1.42-.23,2.95-.47,4.35a51.07,51.07,0,0,1-1.68,7.09,53.43,53.43,0,0,1-2,5.08C316.56,198.51,316.67,193.5,318.45,188.91Zm-26.72,27.52a8.37,8.37,0,0,1,.06-5.28c.17-.44.35-.87.51-1.29.14,2.65.88,5.34-.4,7.7A7.09,7.09,0,0,0,291.73,216.43Zm7.32-10.86a14.86,14.86,0,0,1,1-5.56c-.13,1.32,0,2.7-.14,4-.13,1.53-.35,3.05-.63,4.55A23.05,23.05,0,0,1,299.05,205.57Zm-1.65,3.32-.12-.65c.06.22.11.44.16.67Zm-2-1.89a17.34,17.34,0,0,1,.36,6.51,31.4,31.4,0,0,0-.79-3.13c-.61-2.24-1.05-4.51-.16-6.76.05-.14.11-.28.17-.42A15.38,15.38,0,0,0,295.4,207Zm5.44-45.13a6.5,6.5,0,0,0-3.3-7.11c-2.16-1-4.35,0-4.27,2.54a.75.75,0,0,0,.1.33,3.44,3.44,0,0,0,2.13,2.17,17.36,17.36,0,0,1,2.65,1,1.31,1.31,0,0,1,.68.88c-.39,1.61-1.54,2.91-3.46,2.2-4.75-1.74-7.65-9.19-4.54-13.4,2.58-3.5,6.57-2.22,9.06.74a17.87,17.87,0,0,1,3.54,8.23c1,5.29,1.62,10.64,2.46,16-.17,3.1.46,6.2.71,9.29a49.43,49.43,0,0,1,.18,6.44c-.08,1-.18,2.1-.31,3.13,0,.05,0,.09,0,.14a41.16,41.16,0,0,1-2.28,8.53,15.84,15.84,0,0,1-1.41,2.72,16.43,16.43,0,0,0-.63-9.66.63.63,0,0,0-1.14-.15,15.4,15.4,0,0,0-2.95,7.37,19.5,19.5,0,0,0,0,2.86c-.2-.62-.41-1.23-.59-1.85a28.44,28.44,0,0,1-.65-5.35c0-.17-.25-.28-.35-.1l-.06.16a.17.17,0,0,0-.16.05,11.39,11.39,0,0,0-3.1,6.43,6.64,6.64,0,0,0-.55,1.34.3.3,0,0,0-.14.11c-1.2,1.84-2.64,4.4-2.56,6.68s1,4,.33,6c-.53.33-1.07.64-1.62.94a33.67,33.67,0,0,1-9.08,3.41q-.71.14-1.41.24h-3.55a46.26,46.26,0,0,0,18.66-59.85,6.78,6.78,0,0,0,1.39.78A4.72,4.72,0,0,0,300.84,161.87Zm-49.49-22.09A44.33,44.33,0,1,1,207,184.1,44.38,44.38,0,0,1,251.35,139.78Zm-40.82,71.37a8.3,8.3,0,0,1,.06,5.28,7.09,7.09,0,0,0-.17,1.13c-1.28-2.36-.54-5.05-.4-7.7C210.18,210.28,210.36,210.71,210.53,211.15Zm-3.17-.77a28.66,28.66,0,0,0-.8,3.13,17.34,17.34,0,0,1,.36-6.51,15.38,15.38,0,0,0,.42-3.8c.06.14.12.28.17.42C208.41,205.87,208,208.14,207.36,210.38Zm-2.44-1.49,0,0c.05-.23.1-.45.16-.67Zm-1.91-.34c-.28-1.5-.5-3-.63-4.55-.1-1.29,0-2.67-.14-4a14.86,14.86,0,0,1,1,5.56A21.41,21.41,0,0,1,203,208.55Zm19.81,15.37a33.48,33.48,0,0,1-9.07-3.41c-.56-.3-1.1-.61-1.63-.94-.67-2,.27-3.81.34-6s-1.37-4.84-2.57-6.68a.33.33,0,0,0-.13-.11,6.16,6.16,0,0,0-.56-1.34,11.33,11.33,0,0,0-3.1-6.43A.16.16,0,0,0,206,199a.77.77,0,0,1-.07-.16c-.09-.18-.33-.07-.35.1a28.43,28.43,0,0,1-.64,5.35c-.19.62-.39,1.23-.59,1.85a19.5,19.5,0,0,0,0-2.86,15.3,15.3,0,0,0-2.95-7.37.63.63,0,0,0-1.14.15,16.51,16.51,0,0,0-.63,9.66,15.81,15.81,0,0,1-1.4-2.72,40.57,40.57,0,0,1-2.29-8.53s0-.09,0-.14c-.13-1-.23-2.08-.31-3.13a49.43,49.43,0,0,1,.18-6.44c.26-3.09.89-6.19.71-9.29.85-5.32,1.42-10.67,2.46-16a17.87,17.87,0,0,1,3.54-8.23c2.49-3,6.48-4.24,9.06-.74,3.11,4.21.21,11.66-4.54,13.4-1.92.71-3.07-.59-3.46-2.2a1.37,1.37,0,0,1,.68-.88,17.36,17.36,0,0,1,2.65-1,3.44,3.44,0,0,0,2.13-2.17.64.64,0,0,0,.1-.33c.08-2.58-2.11-3.51-4.27-2.54a6.52,6.52,0,0,0-3.3,7.11,4.72,4.72,0,0,0,6.25,3.22,7.24,7.24,0,0,0,2-1.27,46.25,46.25,0,0,0,18.42,60.34h-3.94Q223.52,224.06,222.82,223.92Zm-38.95-35c1.78,4.59,1.89,9.6,3,14.39a53.43,53.43,0,0,1-2-5.08,52.54,52.54,0,0,1-1.68-7.09c-.24-1.4-.2-2.93-.47-4.35,0-.23-.05-.46-.08-.7A13.46,13.46,0,0,1,183.87,188.91Zm-15.35-1.27c1.7,2.83,3.08,5.83,4.62,8.74a76.42,76.42,0,0,0-4.91-6.65c-1.39-1.68-2.8-3.35-4.14-5.07s-2.23-3.43-3.44-5.06a13.89,13.89,0,0,1,4.08,2.93A24.28,24.28,0,0,1,168.52,187.64ZM180,210.25c3.82,1.54,7.45,3.63,11.15,5.52-2.67-1.07-5.49-1.83-8.2-2.64-2.14-.63-4.25-1.4-6.36-2.12-1.63-.55-3.12-1.43-4.72-2l0-.05a2.08,2.08,0,0,1,.3-.13C174.53,207.88,177.84,209.37,180,210.25Zm-53.83-2c5.49-8.53,19.74-4.47,24.72,2.37l.07.07a24,24,0,0,0,5.88,5.54,16,16,0,0,0-2.92-.51c-3.18-.23-6.57,1.46-7.6,4.56a4.29,4.29,0,0,0,.68,3.9h-5.8c3.46-2.27,5.61-6.18,4.07-10.69-1.83-5.38-10.65-8.8-15.24-4.9a6.42,6.42,0,0,0,1.15,10.54,4.44,4.44,0,0,0,5.79-1.36c1.14-2-1.55-3.71-3.05-4.24a.86.86,0,0,0-.47,0,.37.37,0,0,0-.28.09l-.05.05a1,1,0,0,0-.28.41c-.45.82-.55,2-1.8,1.76a3.27,3.27,0,0,1-2-1.29,5.2,5.2,0,0,1,1.38-4.5c2-2.18,5.54-1.88,8.07-1a8,8,0,0,1,5.64,6.72c.32,4-2.86,7.28-6.4,8.46H131.4A10.91,10.91,0,0,1,126.19,208.23Z" transform="translate(-89.24 -119.56)"/><path class="cls-1" d="M403,300.51a2.87,2.87,0,0,0-2.81,2.3H99.77a2.87,2.87,0,0,0-2.81-2.3c-1.59,0-7.72,2.87-7.72,2.87s6.13,2.88,7.72,2.88a2.87,2.87,0,0,0,2.51-1.48h25.37a4.06,4.06,0,0,0-1.23,2.47,5.88,5.88,0,0,0,3.38,6.34c6,2.78,14.3-.38,19.62-3.3s10.52-4.23,16.67-2.64a31.68,31.68,0,0,1,5.17,2,12.86,12.86,0,0,0-9.25,3c-7.85,6.6-4,19.31,6.17,20.18a12,12,0,0,0,10.81-5.32c2-3.07,1.42-7.69-1.55-9.89-4.49-3.32-13.84,1.7-8.65,6.93a4.93,4.93,0,0,0,2.29,1.23.66.66,0,0,0,.73-1,.88.88,0,0,0,.05-.54,3.38,3.38,0,0,1,2.08-3.59c1.43-.75,2.54-.28,3.88.11,1.44,2.7-.49,6.48-2.72,8.13A10.48,10.48,0,0,1,161.93,330c-9-4.1-5.06-16.75,3.38-18.59,4-.87,8.36.77,12,2.21a33.79,33.79,0,0,1,6,3.1l.69.45c3.52,4.37,11.48,5.11,16.32,4.65a26,26,0,0,0,7.93-2.08,18,18,0,0,1-7,3.05c-2.31.41-8.23.07-7.46,4,.72,3.62,6.69,3.56,9.13,2.44a23.88,23.88,0,0,0,2.13-1.11q-.74.93-1.41,1.89c-1.85,2.64-4.56,7.3-1.69,10.13,3.09,3.06,5.62-.46,7.44-5.31.47,2.31,1.54,4.59,3.42,5.64,1.27.7,2.67-.07,3.48-1.06,1.11-1.37.77-3.34.36-4.89-.59-2.22-1.85-4.2-2.54-6.39a10.54,10.54,0,0,1-.39-1.8,12.06,12.06,0,0,0,1.43,2.61c2.71,3.72,7.55,5.36,12,4.86a13.45,13.45,0,0,0,4.88-1.59,36,36,0,0,1,4-.65,11.93,11.93,0,0,1,6.16,1.48,9.79,9.79,0,0,1,4.84,10.52c-.92,4.89-5.81,5.63-9.25,2.8-1.71-1.41-2.3-3.6-.83-5.36a2.72,2.72,0,0,1,.63.08,2,2,0,0,1,.86.61c.53.58.39,1.16.35,1.86a.59.59,0,0,0,0,.14.82.82,0,0,0,.63,1c5.37,1.13,4.11-9.17-1.69-6.6-6.79,3-2.69,10.88,3.21,11.73,6.84,1,8.67-7.45,6.8-12.4a10.81,10.81,0,0,0-6.25-6.06,12.68,12.68,0,0,0-7.84-.28,8.63,8.63,0,0,0,3.37-5.6A10.69,10.69,0,0,0,229,313.86c-4.11-1-9,1.8-9.56,6.1-.67,5.07,5.67,5.76,9,4.44a.94.94,0,0,0,.61-.76,1.55,1.55,0,0,0,.5-1.17c0-1.11-1.18-1.81-2.13-2a8.54,8.54,0,0,0-3.32.33,3.7,3.7,0,0,1-1.72-.06c-1.18-.34-1.2-1.82-.88-2.86a8.3,8.3,0,0,1,3.94-2.75c6.74-2.13,12.35,6.48,9.51,12.22-2.58,5.21-10.22,5.76-14.81,3.41-5.83-3-6.57-10.2-3.88-15.6,2.3-4.62,7.27-7.26,12.27-7.71,5.77-.52,10.72,2.62,15,6.17a35.12,35.12,0,0,1,9,10.94,19.8,19.8,0,0,0-2.07,7.26c-.26,3.62.89,6.78,2.15,9.93-.81,2.06-1.69,4.13-2.3,6.27A19,19,0,0,0,252,361.53l-3.12,3.13,4.53,11.78,4.52-11.78-3.06-3.07A19,19,0,0,0,256.6,348a66.21,66.21,0,0,0-2.3-6.27c1.27-3.15,2.41-6.31,2.15-9.93a19.61,19.61,0,0,0-2.07-7.26,35.26,35.26,0,0,1,9-10.94c4.24-3.55,9.2-6.69,15-6.17,5,.45,10,3.09,12.27,7.71,2.68,5.4,1.94,12.62-3.89,15.6-4.59,2.35-12.23,1.8-14.81-3.41-2.83-5.74,2.78-14.35,9.51-12.22a8.32,8.32,0,0,1,3.95,2.75c.32,1,.29,2.52-.89,2.86a3.7,3.7,0,0,1-1.72.06,8.5,8.5,0,0,0-3.32-.33c-.94.21-2.13.91-2.13,2a1.59,1.59,0,0,0,.5,1.17.94.94,0,0,0,.62.76c3.33,1.32,9.67.63,9-4.44-.57-4.3-5.45-7.07-9.56-6.1a10.69,10.69,0,0,0-8.06,11.66,8.67,8.67,0,0,0,3.37,5.6,12.68,12.68,0,0,0-7.84.28,10.8,10.8,0,0,0-6.24,6.06c-1.88,5-.05,13.39,6.8,12.4,5.9-.85,10-8.71,3.2-11.73-5.8-2.57-7.06,7.73-1.68,6.6a.83.83,0,0,0,.63-1,.61.61,0,0,0,0-.14c0-.7-.17-1.28.36-1.86a2,2,0,0,1,.85-.61,2.72,2.72,0,0,1,.63-.08c1.48,1.76.88,4-.83,5.36-3.44,2.83-8.33,2.09-9.24-2.8a9.78,9.78,0,0,1,4.83-10.52,11.93,11.93,0,0,1,6.16-1.48,36.19,36.19,0,0,1,4,.65,13.39,13.39,0,0,0,4.88,1.59c4.45.5,9.3-1.14,12-4.86a11.68,11.68,0,0,0,1.44-2.61,10.57,10.57,0,0,1-.4,1.8c-.69,2.19-1.95,4.17-2.54,6.39-.41,1.55-.75,3.52.36,4.89.82,1,2.21,1.76,3.48,1.06,1.89-1.05,2.95-3.33,3.42-5.64,1.82,4.85,4.35,8.37,7.45,5.31,2.86-2.83.16-7.49-1.69-10.13-.46-.64-.93-1.27-1.42-1.89.7.4,1.4.78,2.13,1.11,2.44,1.12,8.42,1.18,9.13-2.44.78-3.92-5.15-3.58-7.46-4a18,18,0,0,1-7-3.05,26.1,26.1,0,0,0,7.93,2.08c4.85.46,12.8-.28,16.32-4.65l.69-.45a34.14,34.14,0,0,1,6-3.1c3.66-1.44,8-3.08,12-2.21C350,313.28,353.94,325.93,345,330a10.5,10.5,0,0,1-10.37-1.13c-2.23-1.65-4.16-5.43-2.72-8.13,1.34-.39,2.45-.86,3.89-.11a3.39,3.39,0,0,1,2.08,3.59.88.88,0,0,0,0,.54.66.66,0,0,0,.73,1,4.88,4.88,0,0,0,2.29-1.23c5.2-5.23-4.16-10.25-8.65-6.93-3,2.2-3.52,6.82-1.55,9.89a12,12,0,0,0,10.82,5.32c10.2-.87,14-13.58,6.17-20.18a12.88,12.88,0,0,0-9.25-3,31,31,0,0,1,5.17-2c6.15-1.59,11.2-.36,16.67,2.64,5.31,2.92,13.58,6.08,19.61,3.3a5.89,5.89,0,0,0,3.39-6.34,4.12,4.12,0,0,0-1.24-2.47h18.48a2.87,2.87,0,0,0,2.51,1.48c1.59,0,7.72-2.88,7.72-2.88S404.63,300.51,403,300.51ZM182.41,313.87a8.17,8.17,0,0,0,.32,1.1,46.93,46.93,0,0,0-7-3.62,81,81,0,0,0-7.85-3.42,28.85,28.85,0,0,0-10.44-2.47c-7.2-.18-12.63,4.9-19.38,6.48-2.85.67-7.67,1.42-10.46-.18l0,0a.6.6,0,0,0,0-.19c0-.14,0-.29-.07-.43a1.8,1.8,0,0,1-.05-.73,1.77,1.77,0,0,1,.21-.6.44.44,0,0,1,.12-.16c0-.05.25-.24.18-.19a1.24,1.24,0,0,1,.44-.22l.07,0h.24c0,.05.1.15,0,0l.06.08s0,0,0,.05.05.29.11.42a.84.84,0,0,0,.78.6.71.71,0,0,0,.2,0,.91.91,0,0,0,.45-.09c3.42-1.58,2.27-4.09,0-5.44h54.1C182.47,307,181.93,311.58,182.41,313.87Zm22.36,12.31c-2,1.23-4.12,2.37-6.57,2a6,6,0,0,1-2.4-1.11c2.22,1,6.31-.42,8.08-1.08a19.85,19.85,0,0,0,4-2.07A22,22,0,0,1,204.77,326.18Zm4.43,4.11c-.27,1.12-.55,2.23-.86,3.32a16.85,16.85,0,0,1-1.84,4.19,3.57,3.57,0,0,1-1.31,1.26,10.33,10.33,0,0,0,.31-1.34,29.23,29.23,0,0,1,2.26-5.89c.56-1.11,1.12-2.2,1.68-3.28Q209.29,329.41,209.2,330.29Zm5.58,3.5a9.58,9.58,0,0,1,.42,4.43c-.29-1.36-1.34-2.63-2-3.83-1-2-.81-4.6-.89-6.94.15.64.31,1.25.5,1.83C213.35,330.83,214.19,332.28,214.78,333.79Zm40.36,15.41a16.82,16.82,0,0,1-1.67,11l-.06-.06h0a16.64,16.64,0,0,1-1.64-10.93,30.54,30.54,0,0,1,1.69-5.35A32.32,32.32,0,0,1,255.14,349.2Zm-.8-19.91c1,3.64.25,6.94-.89,10.19-1.15-3.25-1.86-6.55-.9-10.19a24.63,24.63,0,0,1,.9-2.67A24.58,24.58,0,0,1,254.34,329.29Zm39.31,5.1c-.61,1.2-1.67,2.47-2,3.83a9.85,9.85,0,0,1,.42-4.43c.6-1.51,1.43-3,1.93-4.51a18.74,18.74,0,0,0,.5-1.83C294.46,329.79,294.69,332.35,293.65,334.39ZM303,326c1.77.66,5.87,2.11,8.08,1.08a6,6,0,0,1-2.39,1.11c-2.46.38-4.54-.76-6.57-2a22.7,22.7,0,0,1-3.08-2.27A19.85,19.85,0,0,0,303,326Zm-3.88,5.85a29.23,29.23,0,0,1,2.26,5.89,8.83,8.83,0,0,0,.32,1.34,3.52,3.52,0,0,1-1.32-1.26,16.82,16.82,0,0,1-1.83-4.19c-.31-1.09-.59-2.2-.87-3.32-.06-.59-.13-1.17-.23-1.74C298,329.63,298.58,330.72,299.13,331.83Zm18.71-13c-6.26,3-15.46,2.41-22-1.48a8.44,8.44,0,0,0-1.18-.8c-.88-.84-1.73-1.7-2.53-2.57-4.25-7.55-14-10-21.91-6.78-4.84,2-9.4,6-12.75,9.95a39.2,39.2,0,0,0-4.05,5.66,39.2,39.2,0,0,0-4-5.66c-3.35-3.94-7.91-8-12.76-9.95-7.9-3.25-17.66-.77-21.9,6.78-.81.87-1.65,1.73-2.54,2.57a9.07,9.07,0,0,0-1.18.8c-6.51,3.89-15.7,4.52-22,1.48-4.34-2.1-5.81-6-4.4-10.42a6.14,6.14,0,0,1,1-1.89c.8.26,1.88.09,2.25,1.13.27.74.19,2.41-.83,2.52a.92.92,0,0,0-.79,1.29,1,1,0,0,0,.91,1c2.22.25,5.31-1,5.37-3.64a5.15,5.15,0,0,0-1.92-4H316.29a5.12,5.12,0,0,0-1.93,4c.07,2.63,3.15,3.89,5.37,3.64a1,1,0,0,0,.91-1,.92.92,0,0,0-.78-1.29c-1-.11-1.1-1.78-.84-2.52.37-1,1.45-.87,2.25-1.13a6.39,6.39,0,0,1,1,1.89C323.65,312.8,322.17,316.7,317.84,318.8Zm58.69-8.58a1,1,0,0,0,.45.09.78.78,0,0,0,.21,0,.82.82,0,0,0,.77-.6,2.88,2.88,0,0,0,.11-.42c0-.06,0-.05,0-.05s0,0,.06-.08c-.09.14,0,0,0,0h.24l.07,0a1.33,1.33,0,0,1,.44.22c-.08-.05.14.14.18.19a.92.92,0,0,1,.12.16,2,2,0,0,1,.21.6,2,2,0,0,1-.05.73,3.21,3.21,0,0,0-.07.43.31.31,0,0,0,0,.19.08.08,0,0,1,0,0c-2.79,1.6-7.6.85-10.46.18-6.74-1.58-12.17-6.66-19.38-6.48A28.75,28.75,0,0,0,339,307.93a81.2,81.2,0,0,0-7.86,3.42,47.42,47.42,0,0,0-7,3.62,8.17,8.17,0,0,0,.32-1.1c.48-2.29-.05-6.85-2.07-9.09H376.5C374.27,306.13,373.12,308.64,376.53,310.22Z" transform="translate(-89.24 -119.56)"/><polygon class="cls-1" points="158.31 15.02 163.19 12.45 168.07 15.02 167.14 9.59 171.09 5.74 165.63 4.94 163.19 0 160.75 4.94 155.3 5.74 159.25 9.59 158.31 15.02"/><polygon class="cls-1" points="144.84 13.64 146.88 11.54 149.77 12.02 148.39 9.43 149.74 6.83 146.85 7.34 144.8 5.25 144.39 8.15 141.77 9.46 144.4 10.75 144.84 13.64"/><polygon class="cls-1" points="177.74 11.54 179.78 13.64 180.22 10.75 182.85 9.46 180.23 8.15 179.82 5.25 177.77 7.34 174.88 6.83 176.23 9.43 174.85 12.02 177.74 11.54"/><polygon class="cls-1" points="189.09 17.09 190.01 18.82 190.82 17.04 192.75 16.7 191.31 15.38 191.58 13.44 189.88 14.4 188.12 13.54 188.51 15.46 187.15 16.87 189.09 17.09"/><polygon class="cls-1" points="132.43 17.04 133.24 18.82 134.16 17.09 136.1 16.87 134.74 15.46 135.13 13.54 133.37 14.4 131.67 13.44 131.94 15.38 130.5 16.7 132.43 17.04"/><path class="cls-1" d="M265.32,197.74a4.31,4.31,0,0,0,3.2,1.14,7.9,7.9,0,0,1,.3,2.53q-3.52-.18-7.11-.18c-2.74,0-5.1.06-7.1.18a8.26,8.26,0,0,1,.29-2.53,4.28,4.28,0,0,0,3.2-1.14c.57-.68.86-2,.86-4V182.15q-13.45,0-17.91.35v11.28c0,1.95.28,3.28.85,4a4.28,4.28,0,0,0,3.2,1.14,8.26,8.26,0,0,1,.29,2.53q-3.52-.18-7.1-.18-4.11,0-7.11.18a7.9,7.9,0,0,1,.3-2.53,4.31,4.31,0,0,0,3.2-1.14c.56-.68.85-2,.85-4V169c0-2-.29-3.28-.85-4a4.31,4.31,0,0,0-3.2-1.15,7.87,7.87,0,0,1-.3-2.52q3.23.16,7.11.17,3.57,0,7.1-.17a8.23,8.23,0,0,1-.29,2.52,4.28,4.28,0,0,0-3.2,1.15c-.57.68-.85,2-.85,4v10.63H259V169c0-2-.29-3.28-.86-4a4.28,4.28,0,0,0-3.2-1.15,8.23,8.23,0,0,1-.29-2.52q3.22.16,7.1.17,3.59,0,7.11-.17a7.87,7.87,0,0,1-.3,2.52,4.31,4.31,0,0,0-3.2,1.15c-.56.68-.85,2-.85,4v24.78C264.47,195.73,264.76,197.06,265.32,197.74Z" transform="translate(-89.24 -119.56)"/><path class="cls-1" d="M152.11,239.47a10.1,10.1,0,0,1,2.95,7.47,13.39,13.39,0,0,1-1.4,6,11.33,11.33,0,0,1-4.15,4.58,12,12,0,0,1-6.61,1.76,10.17,10.17,0,0,1-3.75-.59,6.39,6.39,0,0,1-.1-1,4,4,0,0,1,.16-1.18,12.27,12.27,0,0,0,2.83.32q7.56,0,7.55-8.35a10.48,10.48,0,0,0-2.19-7.05q-2.19-2.53-6.86-2.54a14.07,14.07,0,0,0-2.73.32V265a9.67,9.67,0,0,0,.49,3.51,2.93,2.93,0,0,0,1.47,1.66,8.14,8.14,0,0,0,2.81.56,7.28,7.28,0,0,1,.27,2.3c-1.64-.1-3.89-.16-6.75-.16-3.46,0-5.89.06-7.28.16a7.28,7.28,0,0,1,.27-2.3,3.92,3.92,0,0,0,2.91-1c.52-.63.78-1.83.78-3.62v-22.6c0-1.78-.26-3-.78-3.61a3.92,3.92,0,0,0-2.91-1,7.24,7.24,0,0,1-.27-2.3q2.77.17,7.28.16l6.8-.1Q149.17,236.56,152.11,239.47Z" transform="translate(-89.24 -119.56)"/><path class="cls-1" d="M187,268.47a5.26,5.26,0,0,0,2,1.5,9.73,9.73,0,0,0,3.14.59,8.7,8.7,0,0,1-.22,2.3,55.65,55.65,0,0,0-8.4.48c-1.36-2.17-2.56-4.28-3.59-6.31l-.65-1.18q-1.65-3-3-5a38,38,0,0,0-3.62-4.42l-1.65.06c-.54,0-1.24,0-2.09-.11v9.69a6.36,6.36,0,0,0,.72,3.62,3.66,3.66,0,0,0,2.81,1,7.54,7.54,0,0,1,.27,2.3c-1.54-.1-3.66-.16-6.37-.16s-4.82.06-6.43.16a7.9,7.9,0,0,1,.27-2.3,3.92,3.92,0,0,0,2.94-1,6.16,6.16,0,0,0,.75-3.62v-22.6a6.35,6.35,0,0,0-.77-3.67,3.56,3.56,0,0,0-2.92-1,7.64,7.64,0,0,1-.27-2.24q2.15.1,6.43.1c2,0,3.44,0,4.44,0l4.5-.05c3.85,0,6.76.82,8.73,2.48a8.14,8.14,0,0,1,2.94,6.51,8.68,8.68,0,0,1-2.38,6.11A13.23,13.23,0,0,1,178,255.3a30.81,30.81,0,0,1,3.16,3.88q1.28,1.9,3.8,6.19A24.09,24.09,0,0,0,187,268.47Zm-15.75-14.4a13,13,0,0,0,7.55-2,7.63,7.63,0,0,0,.78-11.25c-1.41-1.26-3.65-1.9-6.72-1.9a18.81,18.81,0,0,0-4,.43v14.57A20.46,20.46,0,0,0,171.28,254.07Z" transform="translate(-89.24 -119.56)"/><path class="cls-1" d="M223.55,265a46.91,46.91,0,0,0-1.66,8q-4.19-.11-11.46-.11-9.85,0-13.87.16a7.28,7.28,0,0,1,.27-2.3,5.59,5.59,0,0,0,2.27-.54,2.38,2.38,0,0,0,1.1-1.5,12.1,12.1,0,0,0,.32-3.21v-22c0-1.78-.26-3-.78-3.61a3.92,3.92,0,0,0-2.91-1,7.24,7.24,0,0,1-.27-2.3q3.15.17,9,.16,9.75,0,15-.16a70.16,70.16,0,0,0,1.13,8.46,3.81,3.81,0,0,1-2.41.64,7.67,7.67,0,0,0-2.17-4.89c-1.27-1.27-3.47-1.91-6.62-1.91h-5v14.68h3.38c2.25,0,3.79-.3,4.63-.89s1.28-1.74,1.31-3.45a9.2,9.2,0,0,1,2.57-.38c-.07,1.22-.1,3.16-.1,5.84q0,4.39.1,6.21a9.73,9.73,0,0,1-2.46-.27c-.14-1.85-.64-3.11-1.47-3.77s-2.37-1-4.58-1h-3.38v9.69a9.56,9.56,0,0,0,.38,3.08,2.38,2.38,0,0,0,1.42,1.47,8.37,8.37,0,0,0,3.08.43h.32a16.7,16.7,0,0,0,5.67-.75,6,6,0,0,0,2.92-2.09,16.61,16.61,0,0,0,1.85-3.9A5.71,5.71,0,0,1,223.55,265Z" transform="translate(-89.24 -119.56)"/><path class="cls-1" d="M234.68,272.51a25.91,25.91,0,0,1-5.3-2.59,49.49,49.49,0,0,0,.49-7.61,11.7,11.7,0,0,1,2.89-.32,10.42,10.42,0,0,0,2.17,6.53q1.95,2.25,6.07,2.25a7.55,7.55,0,0,0,5.17-1.52,5.19,5.19,0,0,0,1.69-4.05,5.78,5.78,0,0,0-1.07-3.53,9.07,9.07,0,0,0-2.63-2.38,43.56,43.56,0,0,0-4.33-2.22,52.29,52.29,0,0,1-5.15-2.79,11.21,11.21,0,0,1-3.29-3.29,9.19,9.19,0,0,1-1.36-5.17,9,9,0,0,1,2.89-7.07,11.44,11.44,0,0,1,7.87-2.57,18.51,18.51,0,0,1,5,.67,13.34,13.34,0,0,1,3.91,1.69,56.92,56.92,0,0,0,.32,7.06,7.77,7.77,0,0,1-3,.49q-.75-4.4-2.24-6a5.33,5.33,0,0,0-4.07-1.58,6.55,6.55,0,0,0-4.45,1.39,4.9,4.9,0,0,0-1.61,3.91,5.93,5.93,0,0,0,1.1,3.59,9.25,9.25,0,0,0,2.68,2.46c1,.64,2.51,1.43,4.36,2.36a44.46,44.46,0,0,1,5.06,2.73,11.25,11.25,0,0,1,3.24,3.21,8.43,8.43,0,0,1,1.34,4.87,10.22,10.22,0,0,1-1.31,5.12,9.4,9.4,0,0,1-4.07,3.74,14.76,14.76,0,0,1-6.83,1.42A17.25,17.25,0,0,1,234.68,272.51Z" transform="translate(-89.24 -119.56)"/><path class="cls-1" d="M282.72,238.43q0,2.15.37,6.64a5.6,5.6,0,0,1-2.67.48,7.64,7.64,0,0,0-1.56-4.87,5.63,5.63,0,0,0-4.49-1.66h-2.84v27a9,9,0,0,0,.32,2.81,2.16,2.16,0,0,0,1.2,1.34,7.82,7.82,0,0,0,2.65.51A7.28,7.28,0,0,1,276,273c-2.28-.1-4.62-.16-7-.16-2.68,0-5,.06-7,.16a7.28,7.28,0,0,1,.27-2.3,8.08,8.08,0,0,0,2.68-.51,2.32,2.32,0,0,0,1.26-1.36,8.73,8.73,0,0,0,.34-2.79V239h-2.73a7.73,7.73,0,0,0-3.8.77,4.4,4.4,0,0,0-1.9,2.09,17.21,17.21,0,0,0-1,3.67,5.19,5.19,0,0,1-2.57-.48,49.6,49.6,0,0,0,.85-8.57q3,.17,13.66.16,10.82,0,13.76-.16Z" transform="translate(-89.24 -119.56)"/><path class="cls-1" d="M289.28,239.85a4,4,0,0,0-2.92-1,7.24,7.24,0,0,1-.27-2.3q3,.17,6.48.16,3.27,0,6.48-.16a7.24,7.24,0,0,1-.27,2.3,3.92,3.92,0,0,0-2.91,1c-.52.62-.78,1.83-.78,3.61v22.6c0,1.79.26,3,.78,3.62a3.92,3.92,0,0,0,2.91,1,7.28,7.28,0,0,1,.27,2.3c-2.14-.1-4.3-.16-6.48-.16-2.5,0-4.66.06-6.48.16a7.28,7.28,0,0,1,.27-2.3,4,4,0,0,0,2.92-1c.52-.63.78-1.83.78-3.62v-22.6C290.06,241.68,289.8,240.47,289.28,239.85Z" transform="translate(-89.24 -119.56)"/><path class="cls-1" d="M312.3,271a15.86,15.86,0,0,1-6.18-6.7,21.92,21.92,0,0,1-2.2-10,17.84,17.84,0,0,1,2.63-9.83,16.85,16.85,0,0,1,6.88-6.18,20.37,20.37,0,0,1,9.08-2.09,35.58,35.58,0,0,1,7.07.67,24.69,24.69,0,0,1,5.78,1.85,45.19,45.19,0,0,0-.59,8.3,8.06,8.06,0,0,1-2.84.48c-.11-3.46-.94-5.85-2.49-7.15a9.84,9.84,0,0,0-6.51-2,12.85,12.85,0,0,0-7.39,2,12.42,12.42,0,0,0-4.47,5.38,18,18,0,0,0-1.47,7.31,25.81,25.81,0,0,0,1.47,9,14.13,14.13,0,0,0,4.39,6.32,11.13,11.13,0,0,0,7.15,2.33,19.2,19.2,0,0,0,2.95-.19,11.26,11.26,0,0,0,2.46-.67,2.58,2.58,0,0,0,1.42-1.26,6.75,6.75,0,0,0,.4-2.75v-2.68a15.65,15.65,0,0,0-.29-3.62,1.88,1.88,0,0,0-1.21-1.36,11.47,11.47,0,0,0-3.1-.38,6.87,6.87,0,0,1-.32-2.46q2,.17,6.53.16c2.68,0,4.76,0,6.26-.11a7,7,0,0,1-.32,2.41,3.16,3.16,0,0,0-1.66.41,2.16,2.16,0,0,0-.67,1.41,24.24,24.24,0,0,0-.18,3.54v2.41a14.16,14.16,0,0,0,.13,2.11,4.83,4.83,0,0,0,.56,1.64,20.11,20.11,0,0,1-6.08,2.92,27.34,27.34,0,0,1-7.95,1.09A17.83,17.83,0,0,1,312.3,271Z" transform="translate(-89.24 -119.56)"/><path class="cls-1" d="M371.18,265a46.91,46.91,0,0,0-1.66,8q-4.17-.11-11.46-.11-9.85,0-13.87.16a7.28,7.28,0,0,1,.27-2.3,5.6,5.6,0,0,0,2.28-.54,2.37,2.37,0,0,0,1.09-1.5,11.62,11.62,0,0,0,.33-3.21v-22c0-1.78-.26-3-.78-3.61a4,4,0,0,0-2.92-1,7.24,7.24,0,0,1-.27-2.3q3.17.17,9,.16,9.75,0,15.05-.16a70.67,70.67,0,0,0,1.12,8.46,3.79,3.79,0,0,1-2.41.64,7.62,7.62,0,0,0-2.17-4.89c-1.26-1.27-3.47-1.91-6.61-1.91h-5v14.68h3.37c2.25,0,3.8-.3,4.64-.89s1.27-1.74,1.31-3.45a9.09,9.09,0,0,1,2.57-.38c-.07,1.22-.11,3.16-.11,5.84q0,4.39.11,6.21a9.75,9.75,0,0,1-2.47-.27c-.14-1.85-.63-3.11-1.47-3.77s-2.36-1-4.58-1h-3.37v9.69a9.61,9.61,0,0,0,.37,3.08A2.4,2.4,0,0,0,355,270a8.44,8.44,0,0,0,3.08.43h.32a16.72,16.72,0,0,0,5.68-.75,6,6,0,0,0,2.92-2.09,17,17,0,0,0,1.85-3.9A5.67,5.67,0,0,1,371.18,265Z" transform="translate(-89.24 -119.56)"/><path d="M223.1,283.33c-2.28.15-2.5.24-2.5,1.75v7.23c0,1.52.25,1.57,2.5,1.74v.5h-7.36v-.5c2.28-.18,2.5-.22,2.5-1.74v-3.6h-9.39v3.6c0,1.5.22,1.56,2.47,1.74v.5H204v-.5c2.23-.17,2.47-.22,2.47-1.74v-7.23c0-1.51-.24-1.6-2.47-1.75v-.5h7.33v.5c-2.19.13-2.47.25-2.47,1.75V288h9.39v-2.87c0-1.5-.3-1.62-2.5-1.75v-.5h7.36Z" transform="translate(-89.24 -119.56)"/><path d="M235,282.58c4.69,0,8.89,2.36,8.89,5.95,0,3.87-4,6.29-9.06,6.29-5.27,0-9.11-2.63-9.11-6C225.7,285.57,229.19,282.58,235,282.58Zm-.55.66c-3.07,0-5.87,1.7-5.87,5.07s2.8,5.83,6.69,5.83c3.33,0,5.82-1.63,5.82-5.11C241.07,285.24,238,283.24,234.43,283.24Z" transform="translate(-89.24 -119.56)"/><path d="M260.86,285.66a5.94,5.94,0,0,0-.88-1.5c-.44-.49-.71-.61-2.22-.61H255v8.78c0,1.41.22,1.61,2.83,1.72v.5h-8v-.5c2.56-.11,2.78-.29,2.78-1.72v-8.78h-2.5c-1.51,0-1.95.11-2.42.65a6.66,6.66,0,0,0-.9,1.46H246c.17-1.1.33-2.24.41-3.25H247c.41.44.71.42,1.48.42h10.87a1.72,1.72,0,0,0,1.4-.42h.66a29.88,29.88,0,0,0,.24,3.2Z" transform="translate(-89.24 -119.56)"/><path d="M278.18,291.68c-.17.47-.91,2.33-1.18,2.87H263.66v-.5c2.55-.13,2.74-.29,2.74-1.77v-7.13c0-1.6-.3-1.69-2.36-1.82v-.5h8.4c2.58,0,3.65,0,4,0,0,.45.14,1.8.25,2.76l-.83.09a5,5,0,0,0-.82-1.37c-.44-.6-1.07-.72-2.72-.72h-2.6c-.85,0-.91.05-.91.58v4h3c2.06,0,2.19-.27,2.52-1.49h.85v3.71h-.85c-.35-1.3-.57-1.48-2.55-1.48h-3v3.59c0,1.26.6,1.37,2,1.39h2.55c1.67,0,1.95-.16,2.55-.63a7.85,7.85,0,0,0,1.48-1.66Z" transform="translate(-89.24 -119.56)"/><path d="M293.88,291.56c-.17.56-1,2.43-1.27,3H279.85v-.5c2.5-.17,2.72-.26,2.72-1.79V285.1c0-1.53-.28-1.62-2.47-1.77v-.5h7.35v.5c-2.19.15-2.49.22-2.49,1.77v7.34c0,1.1.21,1.35,1.78,1.37l2.17,0a3.41,3.41,0,0,0,2.44-.56,6.32,6.32,0,0,0,1.68-1.86Z" transform="translate(-89.24 -119.56)"/><path class="cls-1" d="M223.1,283.33c-2.28.15-2.5.24-2.5,1.75v7.23c0,1.52.25,1.57,2.5,1.74v.5h-7.36v-.5c2.28-.18,2.5-.22,2.5-1.74v-3.6h-9.39v3.6c0,1.5.22,1.56,2.47,1.74v.5H204v-.5c2.23-.17,2.47-.22,2.47-1.74v-7.23c0-1.51-.24-1.6-2.47-1.75v-.5h7.33v.5c-2.19.13-2.47.25-2.47,1.75V288h9.39v-2.87c0-1.5-.3-1.62-2.5-1.75v-.5h7.36Z" transform="translate(-89.24 -119.56)"/><path class="cls-1" d="M235,282.58c4.69,0,8.89,2.36,8.89,5.95,0,3.87-4,6.29-9.06,6.29-5.27,0-9.11-2.63-9.11-6C225.7,285.57,229.19,282.58,235,282.58Zm-.55.66c-3.07,0-5.87,1.7-5.87,5.07s2.8,5.83,6.69,5.83c3.33,0,5.82-1.63,5.82-5.11C241.07,285.24,238,283.24,234.43,283.24Z" transform="translate(-89.24 -119.56)"/><path class="cls-1" d="M260.86,285.66a5.94,5.94,0,0,0-.88-1.5c-.44-.49-.71-.61-2.22-.61H255v8.78c0,1.41.22,1.61,2.83,1.72v.5h-8v-.5c2.56-.11,2.78-.29,2.78-1.72v-8.78h-2.5c-1.51,0-1.95.11-2.42.65a6.66,6.66,0,0,0-.9,1.46H246c.17-1.1.33-2.24.41-3.25H247c.41.44.71.42,1.48.42h10.87a1.72,1.72,0,0,0,1.4-.42h.66a29.88,29.88,0,0,0,.24,3.2Z" transform="translate(-89.24 -119.56)"/><path class="cls-1" d="M278.18,291.68c-.17.47-.91,2.33-1.18,2.87H263.66v-.5c2.55-.13,2.74-.29,2.74-1.77v-7.13c0-1.6-.3-1.69-2.36-1.82v-.5h8.4c2.58,0,3.65,0,4,0,0,.45.14,1.8.25,2.76l-.83.09a5,5,0,0,0-.82-1.37c-.44-.6-1.07-.72-2.72-.72h-2.6c-.85,0-.91.05-.91.58v4h3c2.06,0,2.19-.27,2.52-1.49h.85v3.71h-.85c-.35-1.3-.57-1.48-2.55-1.48h-3v3.59c0,1.26.6,1.37,2,1.39h2.55c1.67,0,1.95-.16,2.55-.63a7.85,7.85,0,0,0,1.48-1.66Z" transform="translate(-89.24 -119.56)"/><path class="cls-1" d="M293.88,291.56c-.17.56-1,2.43-1.27,3H279.85v-.5c2.5-.17,2.72-.26,2.72-1.79V285.1c0-1.53-.28-1.62-2.47-1.77v-.5h7.35v.5c-2.19.15-2.49.22-2.49,1.77v7.34c0,1.1.21,1.35,1.78,1.37l2.17,0a3.41,3.41,0,0,0,2.44-.56,6.32,6.32,0,0,0,1.68-1.86Z" transform="translate(-89.24 -119.56)"/></g></svg>