<?xml version="1.0" encoding="utf-8"?>
<!-- Generator: Adobe Illustrator 25.0.0, SVG Export Plug-In . SVG Version: 6.00 Build 0)  -->
<svg version="1.1" id="Flag" xmlns="http://www.w3.org/2000/svg" xmlns:xlink="http://www.w3.org/1999/xlink" x="0px" y="0px"
	 viewBox="0 0 1990 1050" style="enable-background:new 0 0 1990 1050;" xml:space="preserve">
<style type="text/css">
	.st0{fill:#E30A17;}
	.st1{fill:#FFFFFF;}
</style>
<g>
	<rect x="0" class="st0" width="1990" height="1050"/>
	<g>
		<path class="st1" d="M989.7,712.12c-104.81,0-189.77-93.36-189.77-208.52s84.96-208.52,189.77-208.52
			c62.99,0,118.8,33.72,153.31,85.63c-40.4-82.66-119.81-138.87-211.18-138.87c-132.31,0-239.57,117.86-239.57,263.24
			c0,145.38,107.26,263.24,239.57,263.24c95.35,0,177.68-61.21,216.24-149.82C1114.1,674.91,1055.86,712.12,989.7,712.12z"/>
	</g>
	<polygon class="st1" points="1201.05,371.18 1254.78,453.07 1342.27,422.23 1287.99,503.69 1341.73,585.58 1254.44,554.04 
		1200.16,635.5 1200.5,534.53 1113.22,502.99 1200.71,472.14 	"/>
</g>
</svg>
