<?xml version="1.0" encoding="utf-8"?>
<!-- Generator: Adobe Illustrator 25.0.0, SVG Export Plug-In . SVG Version: 6.00 Build 0)  -->
<svg version="1.1" id="Layer_1" xmlns="http://www.w3.org/2000/svg" xmlns:xlink="http://www.w3.org/1999/xlink" x="0px" y="0px"
	 viewBox="0 0 595.28 841.89" style="enable-background:new 0 0 595.28 841.89;" xml:space="preserve">
<style type="text/css">
	.st0{fill:#FFFFFF;}
	.st1{font-family:'Ravie';}
	.st2{font-size:128.6431px;}
	.st3{fill:#4EC3C3;}
</style>
<text transform="matrix(0.6742 0 0 1 73 450.1504)" class="st0 st1 st2">SKILIFY</text>
<g>
	<g>
		<path class="st3" d="M159.72,526.05c-0.82,2.38-2.34,5.95-3.22,7.49c-1.7,0.3-6.26,1.19-10.7,1.19
			c-13.97,0-21.11-7.89-21.11-16.57c0-10.12,9.06-17.12,22.16-17.12c5.03,0,9.12,0.89,11.05,1.14c0.23,2.23,0.64,5.21,1.11,7.69
			l-1.81,0.35c-1.17-3.33-2.57-5.36-5.56-6.4c-1.52-0.6-3.92-0.94-6.14-0.94c-9.65,0-14.74,6.05-14.74,14.24
			c0,9.58,5.85,15.73,15.32,15.73c5.96,0,8.89-2.33,11.87-7.29L159.72,526.05z"/>
		<path class="st3" d="M198.3,501.04c10,0,18.94,6.5,18.94,16.38c0,10.67-8.54,17.32-19.3,17.32c-11.23,0-19.41-7.24-19.41-16.57
			C178.54,509.27,185.96,501.04,198.3,501.04z M197.13,502.87c-6.55,0-12.51,4.66-12.51,13.94c0,9.23,5.96,16.03,14.27,16.03
			c7.07,0,12.4-4.47,12.4-14.04C211.28,508.38,204.79,502.87,197.13,502.87z"/>
		<path class="st3" d="M276.18,503.12c-3.68,0.2-5.03,0.99-5.15,3.27c-0.06,1.14-0.17,3.23-0.17,7.79v5.36
			c0,5.06-0.7,8.93-4.09,11.96c-2.75,2.43-6.72,3.18-10.76,3.18c-3.39,0-7.02-0.59-9.59-2.28c-3.51-2.28-5.2-5.71-5.2-11.51v-12.65
			c0-4.47-0.47-4.76-5.15-5.11v-1.39h15.38v1.39c-4.68,0.25-5.15,0.64-5.15,5.11v12.41c0,7.25,4.03,11.21,11.05,11.21
			c8.3,0,10.93-4.37,10.93-12.6v-5.06c0-4.57-0.18-6.45-0.29-7.79c-0.18-2.23-1.52-3.08-5.85-3.27v-1.39h14.03V503.12z"/>
		<path class="st3" d="M327.74,534.38c-0.76,0-1.4-0.05-2.16-0.1c-4.27-0.25-6.55-1.19-9.12-4.27c-2.16-2.53-4.27-5.66-6.14-8.19
			c-1.17-1.59-1.93-1.89-4.91-1.89h-2.05v7.79c0,4.22,0.64,4.47,5.32,4.86v1.39h-15.61v-1.39c4.85-0.45,5.26-0.64,5.26-4.86v-19.8
			c0-4.22-0.64-4.37-5.26-4.81v-1.39h14.91c4.27,0,7.13,0.45,9.36,1.69c2.4,1.29,3.98,3.52,3.98,6.55c0,4.27-3.22,6.95-7.54,8.54
			c1.05,1.54,3.57,4.86,5.32,7.1c2.16,2.63,3.27,3.87,4.62,5.11c1.58,1.44,2.92,1.99,4.27,2.28L327.74,534.38z M306.16,518.25
			c3.04,0,4.97-0.4,6.43-1.44c2.28-1.44,3.22-3.42,3.22-6.1c0-5.31-4.15-7.25-8.65-7.25c-1.7,0-2.69,0.2-3.1,0.5
			c-0.53,0.35-0.7,0.84-0.7,2.13v12.16H306.16z"/>
		<path class="st3" d="M362.81,509.27c-0.99-3.27-2.63-6.5-8.13-6.5c-4.56,0-6.14,2.83-6.14,5.41c0,3.42,2.57,5.16,7.43,7.29
			c7.02,3.08,10.06,5.36,10.06,10.07c0,5.21-5.32,9.18-12.86,9.18c-3.51,0-6.55-0.84-8.95-1.64c-0.47-1.39-1.17-4.76-1.58-7.44
			l1.81-0.4c1.17,3.32,3.74,7.64,9.82,7.64c4.21,0,6.78-2.48,6.78-5.71c0-3.82-2.4-5.36-7.54-7.74c-6.14-2.83-9.59-5.21-9.59-9.83
			c0-4.42,4.33-8.58,12.05-8.58c3.27,0,6.49,0.74,7.72,0.94c0.23,1.79,0.47,3.77,0.94,7L362.81,509.27z"/>
		<path class="st3" d="M415.26,526.1c-0.35,1.29-1.93,6.4-2.51,7.89h-28.42v-1.39c5.44-0.35,5.85-0.79,5.85-4.86v-19.6
			c0-4.42-0.64-4.67-5.03-5.01v-1.39h17.89c5.5,0,7.78-0.05,8.48-0.1c0.06,1.24,0.29,4.96,0.53,7.59l-1.75,0.25
			c-0.53-1.69-1.11-2.73-1.75-3.77c-0.94-1.64-2.28-1.99-5.79-1.99h-5.55c-1.81,0-1.93,0.15-1.93,1.59v10.97h6.49
			c4.39,0,4.68-0.74,5.38-4.12h1.81v10.22h-1.81c-0.76-3.57-1.23-4.07-5.44-4.07h-6.43v9.88c0,3.47,1.29,3.77,4.21,3.82h5.44
			c3.57,0,4.15-0.45,5.44-1.74c1.11-1.04,2.34-3.08,3.16-4.57L415.26,526.1z"/>
		<path class="st3" d="M453.26,509.27c-0.99-3.27-2.63-6.5-8.13-6.5c-4.56,0-6.14,2.83-6.14,5.41c0,3.42,2.57,5.16,7.43,7.29
			c7.02,3.08,10.06,5.36,10.06,10.07c0,5.21-5.32,9.18-12.86,9.18c-3.51,0-6.55-0.84-8.95-1.64c-0.47-1.39-1.17-4.76-1.58-7.44
			l1.81-0.4c1.17,3.32,3.74,7.64,9.82,7.64c4.21,0,6.78-2.48,6.78-5.71c0-3.82-2.4-5.36-7.54-7.74c-6.14-2.83-9.59-5.21-9.59-9.83
			c0-4.42,4.33-8.58,12.05-8.58c3.27,0,6.49,0.74,7.72,0.94c0.23,1.79,0.47,3.77,0.94,7L453.26,509.27z"/>
	</g>
</g>
</svg>
